<svg xmlns="http://www.w3.org/2000/svg" viewBox="0 0 256 256" role="img" aria-label="Panadería Nueva Río D'or">
  <defs>
    <linearGradient id="g" x1="0" y1="0" x2="1" y2="1">
      <stop offset="0" stop-color="#dc2626"/>
      <stop offset="1" stop-color="#b91c1c"/>
    </linearGradient>
  </defs>
  <rect width="256" height="256" fill="#ffffff"/>
  <rect x="20" y="20" width="216" height="216" fill="url(#g)" stroke="#111827" stroke-width="8"/>
  <!-- Loaf -->
  <path d="M78 150c0-38 22-66 50-66s50 28 50 66v30H78v-30z" fill="#ffffff" opacity="0.95"/>
  <path d="M88 150c0-30 18-52 40-52s40 22 40 52v24H88v-24z" fill="#ffffff" opacity="0.9"/>
  <!-- Cuts -->
  <path d="M106 130c10-14 22-22 22-22M128 130c10-14 22-22 22-22M150 130c10-14 22-22 22-22" stroke="#dc2626" stroke-width="6" stroke-linecap="round" opacity="0.9"/>
  <!-- Wheat -->
  <path d="M58 184c14-10 14-26 0-36M58 184c-14-10-14-26 0-36" stroke="#fff" stroke-width="6" stroke-linecap="round" opacity="0.9"/>
  <path d="M198 184c14-10 14-26 0-36M198 184c-14-10-14-26 0-36" stroke="#fff" stroke-width="6" stroke-linecap="round" opacity="0.9"/>
</svg>

